<?xml version='1.0' encoding='UTF-8'?>
<svg viewBox="-2 -2 32 32" xmlns="http://www.w3.org/2000/svg" xmlns:xlink="http://www.w3.org/1999/xlink">
  <g id="Layer_1" transform="translate(-2, -2)" style="enable-background:new 0 0 32 32">
    <g id="Target">
      <path d="M16, 10C12.7, 10 10, 12.7 10, 16C10, 19.3 12.7, 22 16, 22C19.3, 22 22, 19.3 22, 16C22, 12.7 19.3, 10 16, 10zM16, 18C14.9, 18 14, 17.1 14, 16C14, 14.9 14.9, 14 16, 14C17.1, 14 18, 14.9 18, 16C18, 17.1 17.1, 18 16, 18z" fill="#727272" class="Black" />
    </g>
  </g>
  <g id="Layer_1" transform="translate(-2, -2)" style="enable-background:new 0 0 32 32">
    <g id="Target">
      <path d="M16, 2C8.3, 2 2, 8.3 2, 16C2, 23.7 8.3, 30 16, 30C23.7, 30 30, 23.7 30, 16C30, 8.3 23.7, 2 16, 2zM16, 26C10.5, 26 6, 21.5 6, 16C6, 10.5 10.5, 6 16, 6C21.5, 6 26, 10.5 26, 16C26, 21.5 21.5, 26 16, 26z" fill="#727272" class="Black" />
    </g>
  </g>
  <g id="Layer_1" transform="translate(14, 14)" style="enable-background:new 0 0 16 16">
    <g id="Home_1_">
      <polygon points="2,16 2,8 0,8 8,0 16,8 14,8 14,16 10,16 6,16  " fill="#1177D7" class="Blue" />
    </g>
  </g>
  <g id="Layer_1" transform="translate(14, 14)" style="enable-background:new 0 0 16 16">
    <g id="Home_1_">
      <rect x="6" y="10" width="4" height="6" rx="0" ry="0" fill="#FFFFFF" class="White" />
    </g>
  </g>
</svg>